<?xml version="1.0" encoding="UTF-8" standalone="no"?>
<svg
   xmlns:dc="http://purl.org/dc/elements/1.1/"
   xmlns:cc="http://creativecommons.org/ns#"
   xmlns:rdf="http://www.w3.org/1999/02/22-rdf-syntax-ns#"
   xmlns:svg="http://www.w3.org/2000/svg"
   xmlns="http://www.w3.org/2000/svg"
   viewBox="0 0 1866.6667 1306.6667"
   height="1306.6667"
   width="1866.6667"
   xml:space="preserve"
   id="svg2"
   version="1.1"><metadata
     id="metadata8"><rdf:RDF><cc:Work
         rdf:about=""><dc:format>image/svg+xml</dc:format><dc:type
           rdf:resource="http://purl.org/dc/dcmitype/StillImage" /></cc:Work></rdf:RDF></metadata><defs
     id="defs6"><clipPath
       id="clipPath272"
       clipPathUnits="userSpaceOnUse"><path
         id="path270"
         d="M 11846.6,4109.68 H 11316 v 590 h 530.6 z" /></clipPath></defs><g
     transform="matrix(1.3333333,0,0,-1.3333333,0,1306.6667)"
     id="g10"><g
       transform="scale(0.1)"
       id="g12"><path
         id="path14"
         style="fill:#fbe3cd;fill-opacity:1;fill-rule:nonzero;stroke:none"
         d="M 14000,0 H 0 V 9800 H 14000 V 0" /><path
         id="path16"
         style="fill:#d4c900;fill-opacity:1;fill-rule:nonzero;stroke:none"
         d="m 3344.71,7723.31 h -1880 c -203.5,0 -370,-166.49 -370,-370 V 5962.12 5473.31 c 0,-7.05 0.25,-14.05 0.65,-21.01 0.11,-2.05 0.31,-4.08 0.47,-6.13 0.36,-4.99 0.8,-9.95 1.36,-14.89 0.25,-2.17 0.54,-4.32 0.83,-6.48 0.66,-4.97 1.41,-9.91 2.27,-14.81 0.32,-1.83 0.64,-3.66 0.98,-5.49 1.09,-5.71 2.32,-11.37 3.66,-16.99 0.22,-0.91 0.41,-1.83 0.64,-2.73 6.92,-27.91 17.05,-54.57 29.94,-79.61 0,-0.01 0,-0.01 0.01,-0.01 v 0 c 61.51,-119.54 186.16,-201.85 329.19,-201.85 h 1880 c 173,0 319.19,120.36 359.15,281.45 0.23,0.92 0.42,1.86 0.64,2.78 1.35,5.61 2.57,11.26 3.65,16.96 0.35,1.82 0.67,3.66 0.99,5.49 0.86,4.9 1.61,9.84 2.27,14.81 0.29,2.16 0.58,4.31 0.83,6.48 0.56,4.94 1,9.9 1.36,14.89 0.15,2.05 0.36,4.08 0.47,6.13 0.4,6.96 0.64,13.96 0.64,21.01 v 488.81 1391.19 c 0,203.51 -166.5,370 -370,370" /><path
         id="path18"
         style="fill:#fff200;fill-opacity:1;fill-rule:nonzero;stroke:none"
         d="m 3344.71,5273.32 h -1880 c -203.5,0 -370,166.5 -370,370 v 1880 c 0,203.5 166.5,370 370,370 h 1880 c 203.5,0 370,-166.5 370,-370 v -1880 c 0,-203.5 -166.5,-370 -370,-370" /><path
         id="path20"
         style="fill:#393536;fill-opacity:1;fill-rule:nonzero;stroke:none"
         d="m 1914.71,6846.65 c 0,-125.19 -101.48,-226.67 -226.66,-226.67 -125.19,0 -226.67,101.48 -226.67,226.67 0,125.18 101.48,226.67 226.67,226.67 125.18,0 226.66,-101.49 226.66,-226.67" /><path
         id="path22"
         style="fill:#ffffff;fill-opacity:1;fill-rule:nonzero;stroke:none"
         d="m 1650.92,6935.51 c 0,-49.08 39.78,-88.86 88.86,-88.86 49.08,0 88.86,39.78 88.86,88.86 0,49.08 -39.78,88.86 -88.86,88.86 -49.08,0 -88.86,-39.78 -88.86,-88.86" /><path
         id="path24"
         style="fill:#393536;fill-opacity:1;fill-rule:nonzero;stroke:none"
         d="m 2894.71,6846.65 c 0,-125.19 101.49,-226.67 226.67,-226.67 125.19,0 226.67,101.48 226.67,226.67 0,125.18 -101.48,226.67 -226.67,226.67 -125.18,0 -226.67,-101.49 -226.67,-226.67" /><path
         id="path26"
         style="fill:#ffffff;fill-opacity:1;fill-rule:nonzero;stroke:none"
         d="m 3158.51,6935.51 c 0,-49.08 -39.79,-88.86 -88.86,-88.86 -49.08,0 -88.87,39.78 -88.87,88.86 0,49.08 39.79,88.86 88.87,88.86 49.07,0 88.86,-39.78 88.86,-88.86" /><path
         id="path28"
         style="fill:#ed1c24;fill-opacity:1;fill-rule:nonzero;stroke:none"
         d="m 1323.91,6206.65 c -85.67,0 -164.85,-27.7 -229.2,-74.53 v -488.8 c 0,-60.48 14.8,-117.62 40.81,-168.16 55.85,-30.88 120.05,-48.51 188.39,-48.51 215.4,0 390,174.61 390,390 0,215.39 -174.6,390 -390,390" /><path
         id="path30"
         style="fill:#ed1c24;fill-opacity:1;fill-rule:nonzero;stroke:none"
         d="m 3485.51,6206.65 c -215.39,0 -390,-174.61 -390,-390 0,-215.39 174.61,-390 390,-390 68.34,0 132.55,17.63 188.4,48.51 26.01,50.54 40.8,107.68 40.8,168.16 v 488.8 c -64.35,46.83 -143.52,74.53 -229.2,74.53" /><path
         id="path32"
         style="fill:#393536;fill-opacity:1;fill-rule:nonzero;stroke:none"
         d="m 2533.72,6582.47 -128.38,0.85 h -129.52 c -57.01,0 113.01,-67.39 127.45,-72.1 l -0.01,-0.29 c 0,0 0.17,0.05 0.48,0.14 0.34,-0.11 0.52,-0.17 0.52,-0.17 v 0.32 c 14.59,4.29 186.44,69.6 129.46,71.25" /><path
         id="path34"
         style="fill:#393536;fill-opacity:1;fill-rule:nonzero;stroke:none"
         d="m 2868.34,6368.32 c -14.17,-16.07 -29.74,-30.94 -46.08,-44.97 -8.17,-7.03 -16.61,-13.74 -25.28,-20.2 -8.56,-6.6 -17.53,-12.68 -26.5,-18.83 -9.18,-5.8 -18.37,-11.66 -28.03,-16.79 -9.45,-5.52 -19.4,-10.17 -29.35,-14.92 -9.98,-4.68 -20.44,-8.48 -30.92,-12.2 -10.75,-3.04 -21.3,-6.86 -32.52,-8.66 -5.56,-1.04 -11.08,-2.36 -16.71,-3.15 l -17.12,-1.59 c -3.05,-0.22 -5.3,-0.6 -9.01,-0.61 l -7.99,0.06 c -5.36,0.08 -10.57,0.01 -16.06,0.2 -11.31,0.79 -22.85,1.27 -33.79,2.91 -11.11,1.17 -22.08,3.4 -33.08,5.51 l -16.35,3.95 -16.12,4.89 c -10.67,3.51 -21.21,7.49 -31.57,11.95 -10.34,4.53 -20.53,9.47 -30.43,15.13 -10.14,5.76 -19.18,11.3 -29.65,19.58 h 25.87 c -10.45,-8.32 -19.5,-13.83 -29.64,-19.6 -9.9,-5.66 -20.09,-10.6 -30.43,-15.13 -10.36,-4.46 -20.9,-8.43 -31.58,-11.94 -10.69,-3.48 -21.5,-6.49 -32.46,-8.89 -11,-2.1 -21.98,-4.33 -33.09,-5.49 -11.05,-1.66 -22.2,-2.09 -33.3,-2.89 -5.56,-0.2 -11.12,-0.15 -16.67,-0.22 l -8.33,-0.07 -1.04,-0.01 -1.95,0.11 -1.99,0.16 -3.98,0.36 -15.91,1.5 c -5.53,0.77 -11.48,2.1 -17.17,3.17 -11.78,1.88 -22.06,5.67 -32.88,8.72 -10.47,3.74 -20.94,7.5 -30.92,12.19 -9.96,4.75 -19.91,9.41 -29.35,14.94 -9.67,5.12 -18.85,11 -28.04,16.79 -8.96,6.14 -17.94,12.23 -26.5,18.83 -8.66,6.47 -17.11,13.18 -25.27,20.22 -16.29,14.08 -31.98,28.82 -46.06,44.99 17.09,-12.88 34.72,-24.79 52.63,-36.06 9.08,-5.47 18.01,-11.07 27.22,-16.19 9.09,-5.3 18.49,-10.03 27.8,-14.79 9.45,-4.5 18.71,-9.32 28.36,-13.19 9.46,-4.32 19.23,-7.71 28.92,-11.19 9.74,-3.29 19.57,-6.14 29.36,-8.84 9.86,-1.98 19.92,-4.85 29.33,-5.55 4.84,-0.53 9.34,-1.35 14.39,-1.71 l 15.98,-0.33 3.99,-0.11 2,-0.07 0.5,-0.01 0.25,-0.01 0.12,-0.01 c -0.38,0.01 1.04,-0.03 -0.83,0.03 l 0.95,0.05 7.64,0.41 15.25,0.87 c 10.1,1.2 20.24,2 30.19,3.98 10.03,1.48 19.85,3.97 29.67,6.28 l 14.57,4.05 14.38,4.6 c 9.5,3.28 18.85,6.97 27.99,11.06 9.1,4.15 18.04,8.64 26.55,13.68 8.35,4.78 17.28,10.8 23.48,15.78 l 13.01,10.47 12.86,-10.47 c 6.17,-5.02 15.12,-11.01 23.46,-15.8 8.52,-5.04 17.46,-9.53 26.56,-13.68 9.14,-4.09 18.49,-7.78 27.99,-11.06 9.52,-3.29 19.22,-5.96 28.95,-8.68 9.82,-2.31 19.64,-4.8 29.67,-6.28 10.07,-1.98 19.82,-2.74 29.7,-3.95 5.14,-0.42 10.59,-0.59 15.87,-0.9 l 7.98,-0.41 c 1.6,-0.05 4.66,0.12 6.93,0.13 l 14.77,0.25 c 4.94,0.33 9.88,1.18 14.84,1.73 9.98,0.78 19.77,3.62 29.69,5.61 9.79,2.72 19.63,5.54 29.37,8.83 9.69,3.49 19.46,6.88 28.92,11.21 9.66,3.86 18.9,8.7 28.36,13.19 9.31,4.76 18.71,9.49 27.8,14.79 9.21,5.14 18.14,10.73 27.22,16.2 17.86,11.33 35.6,23.11 52.61,36.09" /><path
         id="path36"
         style="fill:#c96b2b;fill-opacity:1;fill-rule:nonzero;stroke:none"
         d="m 6404.44,7723.32 h -1880 c -203.5,0 -370,-166.5 -370,-370 v -1880 c 0,-203.5 166.5,-370 370,-370 h 1880 c 203.5,0 370,166.5 370,370 v 1880 c 0,203.5 -166.5,370 -370,370" /><path
         id="path38"
         style="fill:#f68436;fill-opacity:1;fill-rule:nonzero;stroke:none"
         d="m 6404.44,5273.32 h -1880 c -203.5,0 -370,166.5 -370,370 v 1880 c 0,203.5 166.5,370 370,370 h 1880 c 203.5,0 370,-166.5 370,-370 v -1880 c 0,-203.5 -166.5,-370 -370,-370" /><path
         id="path40"
         style="fill:#ffffff;fill-opacity:1;fill-rule:nonzero;stroke:none"
         d="m 4796.55,7285.95 c -219.17,19.06 -270,-480 -270,-740 0,0 80,-150 400,-180 0,0 100,900 -130,920" /><path
         id="path42"
         style="fill:#322f30;fill-opacity:1;fill-rule:nonzero;stroke:none"
         d="m 4623.22,6625.82 c 0,-62.58 5.42,-122.61 15.27,-178.48 61.58,-34.96 153.56,-68.78 288.06,-81.39 0,0 60.75,546.81 -21.39,797.45 -3.96,0.35 -7.93,0.61 -11.94,0.61 -149.12,0 -270,-240.96 -270,-538.19" /><path
         id="path44"
         style="fill:#ffffff;fill-opacity:1;fill-rule:nonzero;stroke:none"
         d="m 4914.66,6907.28 c 0,-82.88 -36.33,-150.06 -81.15,-150.06 -44.81,0 -81.14,67.18 -81.14,150.06 0,82.87 36.33,150.06 81.14,150.06 44.82,0 81.15,-67.19 81.15,-150.06" /><path
         id="path46"
         style="fill:#1f2869;fill-opacity:1;fill-rule:nonzero;stroke:none"
         d="m 4889.89,6667.65 c -6.67,58.81 -16.67,11.03 -83.34,-3.67 -66.66,-14.7 -100,88.2 -120,0 -15.9,-70.15 25.61,-202.97 43.28,-254.44 32.47,-12.44 69.73,-23.47 112.36,-32.03 25.35,52.73 53.67,237.48 47.7,290.14" /><path
         id="path48"
         style="fill:#ffffff;fill-opacity:1;fill-rule:nonzero;stroke:none"
         d="m 6132.34,7285.95 c 219.17,19.06 270,-480 270,-740 0,0 -80,-150 -400,-180 0,0 -100,900 130,920" /><path
         id="path50"
         style="fill:#322f30;fill-opacity:1;fill-rule:nonzero;stroke:none"
         d="m 6305.67,6625.82 c 0,-62.58 -5.42,-122.61 -15.27,-178.48 -61.58,-34.96 -153.56,-68.78 -288.06,-81.39 0,0 -60.75,546.81 21.39,797.45 3.96,0.35 7.93,0.61 11.94,0.61 149.12,0 270,-240.96 270,-538.19" /><path
         id="path52"
         style="fill:#ffffff;fill-opacity:1;fill-rule:nonzero;stroke:none"
         d="m 6014.23,6907.28 c 0,-82.88 36.33,-150.06 81.14,-150.06 44.82,0 81.15,67.18 81.15,150.06 0,82.87 -36.33,150.06 -81.15,150.06 -44.81,0 -81.14,-67.19 -81.14,-150.06" /><path
         id="path54"
         style="fill:#1f2869;fill-opacity:1;fill-rule:nonzero;stroke:none"
         d="m 6039,6667.65 c 6.67,58.81 16.67,11.03 83.34,-3.67 66.66,-14.7 100,88.2 120,0 15.9,-70.15 -25.61,-202.97 -43.28,-254.44 -32.48,-12.44 -69.74,-23.47 -112.36,-32.03 -25.35,52.73 -53.67,237.48 -47.7,290.14" /><path
         id="path56"
         style="fill:#52423b;fill-opacity:1;fill-rule:nonzero;stroke:none"
         d="m 6469.35,6099.7 c 0,0 -905.66,-200 -1004.91,-200 -99.24,0 -1004.9,200 -1004.9,200 -101.54,22.22 180.43,-166.67 502.45,-380 322.02,-213.34 502.45,-186.67 502.45,-186.67 0,0 180.44,-26.67 502.46,186.67 322.01,213.33 603.99,402.22 502.45,380" /><path
         id="path58"
         style="fill:#f68aca;fill-opacity:1;fill-rule:nonzero;stroke:none"
         d="m 4773.65,6031.65 c -62.47,-31.17 -104.9,-66.05 -133.19,-96.06 90.45,-62.52 203.25,-137.53 321.53,-215.89 322.02,-213.34 502.45,-186.67 502.45,-186.67 0,0 180.44,-26.67 502.46,186.67 118.28,78.36 231.08,153.37 321.53,215.89 -28.29,30.01 -70.72,64.89 -133.19,96.06 -271.78,-57.97 -630.44,-131.95 -690.8,-131.95 -60.35,0 -419.01,73.98 -690.79,131.95" /><path
         id="path60"
         style="fill:#f68aca;fill-opacity:1;fill-rule:nonzero;stroke:none"
         d="m 4773.65,6031.65 c -62.47,-31.17 -104.9,-66.05 -133.19,-96.06 90.45,-62.52 203.25,-137.53 321.53,-215.89 322.02,-213.34 502.45,-186.67 502.45,-186.67 0,0 180.44,-26.67 502.46,186.67 118.28,78.36 231.08,153.37 321.53,215.89 -28.29,30.01 -70.72,64.89 -133.19,96.06 -271.78,-57.97 -630.44,-131.95 -690.8,-131.95 -60.35,0 -419.01,73.98 -690.79,131.95" /><path
         id="path62"
         style="fill:#f68aca;fill-opacity:1;fill-rule:nonzero;stroke:none"
         d="m 4773.65,6031.65 c -62.47,-31.17 -104.9,-66.05 -133.19,-96.06 90.45,-62.52 203.25,-137.53 321.53,-215.89 322.02,-213.34 502.45,-186.67 502.45,-186.67 0,0 180.44,-26.67 502.46,186.67 118.28,78.36 231.08,153.37 321.53,215.89 -28.29,30.01 -70.72,64.89 -133.19,96.06 -271.78,-57.97 -630.44,-131.95 -690.8,-131.95 -60.35,0 -419.01,73.98 -690.79,131.95" /><path
         id="path64"
         style="fill:#ffffff;fill-opacity:1;fill-rule:nonzero;stroke:none"
         d="m 4789.01,6028.38 c 14.94,-45.12 42.35,-119.4 60.9,-119.4 15.51,0 37.22,51.97 52.66,95.37 -38.68,8.13 -76.81,16.2 -113.56,24.03" /><path
         id="path66"
         style="fill:#ffffff;fill-opacity:1;fill-rule:nonzero;stroke:none"
         d="m 6110.48,6022.13 c -35.72,-7.58 -72.49,-15.34 -109.56,-23.1 15.28,-42.22 35.87,-90.05 50.75,-90.05 17.72,0 43.51,67.75 58.81,113.15" /><path
         id="path68"
         style="fill:#ffffff;fill-opacity:1;fill-rule:nonzero;stroke:none"
         d="m 4932.46,5739.27 c 9.82,-6.51 19.62,-13.01 29.53,-19.57 25.61,-16.97 50.22,-32.26 74.01,-46.32 -14.69,52.43 -42.91,143.34 -61.86,143.34 -12.1,0 -27.96,-37.03 -41.68,-77.45" /><path
         id="path70"
         style="fill:#ffffff;fill-opacity:1;fill-rule:nonzero;stroke:none"
         d="m 5966.9,5719.7 c 11.24,7.44 22.37,14.82 33.5,22.2 -13.52,39.38 -28.95,74.82 -40.79,74.82 -18.54,0 -45.95,-87.02 -60.89,-139.89 21.99,13.13 44.66,27.28 68.18,42.87" /><path
         id="path72"
         style="fill:#393536;fill-opacity:1;fill-rule:nonzero;stroke:none"
         d="m 4918.52,7365.75 c -1.62,0 -3.21,0.79 -4.17,2.24 -30.42,45.86 -67.91,73.1 -111.43,80.97 -74.73,13.51 -142.89,-35.1 -143.58,-35.59 -2.23,-1.61 -5.36,-1.12 -6.98,1.11 -1.62,2.23 -1.13,5.36 1.1,6.98 2.92,2.11 72.18,51.6 151.16,37.36 46.34,-8.36 86.06,-37.06 118.06,-85.31 1.53,-2.3 0.9,-5.4 -1.4,-6.93 -0.85,-0.56 -1.81,-0.83 -2.76,-0.83" /><path
         id="path74"
         style="fill:#393536;fill-opacity:1;fill-rule:nonzero;stroke:none"
         d="m 6010.37,7365.75 c 1.62,0 3.21,0.79 4.17,2.24 30.42,45.86 67.91,73.1 111.43,80.97 74.73,13.51 142.89,-35.1 143.58,-35.59 2.23,-1.61 5.36,-1.12 6.98,1.11 1.62,2.23 1.13,5.36 -1.11,6.98 -2.91,2.11 -72.17,51.6 -151.15,37.36 -46.34,-8.36 -86.06,-37.06 -118.06,-85.31 -1.53,-2.3 -0.9,-5.4 1.4,-6.93 0.85,-0.56 1.81,-0.83 2.76,-0.83" /><path
         id="path76"
         style="fill:#393536;fill-opacity:1;fill-rule:nonzero;stroke:none"
         d="m 5189.22,6087.2 c 0,0 -42.5,11.06 -48.75,14.28 -6.25,3.22 20,34.47 31.25,24.47 11.25,-10 26.3,-41.08 17.5,-38.75" /><path
         id="path78"
         style="fill:#393536;fill-opacity:1;fill-rule:nonzero;stroke:none"
         d="m 5739.67,6087.2 c 0,0 42.5,11.06 48.75,14.28 6.25,3.22 -20,34.47 -31.25,24.47 -11.25,-10 -26.3,-41.08 -17.5,-38.75" /><path
         id="path80"
         style="fill:#3ebed1;fill-opacity:1;fill-rule:nonzero;stroke:none"
         d="m 9456.82,7723.32 h -1880 c -203.5,0 -370,-166.5 -370,-370 v -1880 c 0,-203.5 166.5,-370 370,-370 h 1880 c 203.5,0 370,166.5 370,370 v 1880 c 0,203.5 -166.5,370 -370,370" /><path
         id="path82"
         style="fill:#a3ded0;fill-opacity:1;fill-rule:nonzero;stroke:none"
         d="m 9456.82,5273.32 h -1880 c -203.5,0 -370,166.5 -370,370 v 1880 c 0,203.5 166.5,370 370,370 h 1880 c 203.5,0 370,-166.5 370,-370 v -1880 c 0,-203.5 -166.5,-370 -370,-370" /><path
         id="path84"
         style="fill:#322f30;fill-opacity:1;fill-rule:nonzero;stroke:none"
         d="m 9051.58,6108.96 c -366.14,-20.02 -510.67,-120.1 -510.67,-120.1 0,0 -144.53,100.08 -510.67,120.1 -366.14,20.02 -542.02,140.12 -542.02,140.12 248.07,-660.56 1052.69,-600.51 1052.69,-600.51 0,0 804.62,-60.05 1052.69,600.51 0,0 -175.89,-120.1 -542.02,-140.12" /><path
         id="path86"
         style="fill:#f68aca;fill-opacity:1;fill-rule:nonzero;stroke:none"
         d="m 8540.91,5988.86 c 0,0 -144.53,100.09 -510.67,120.1 -50.06,2.74 -96.43,7.39 -139.41,13.31 -96.7,-70.24 -146.14,-149.57 -171.39,-213.82 333.09,-296.28 821.47,-259.88 821.47,-259.88 0,0 488.38,-36.4 821.47,259.88 -25.25,64.25 -74.69,143.58 -171.39,213.82 -42.98,-5.92 -89.36,-10.57 -139.41,-13.31 -366.14,-20.01 -510.67,-120.1 -510.67,-120.1" /><path
         id="path88"
         style="fill:#322f30;fill-opacity:1;fill-rule:nonzero;stroke:none"
         d="m 8320.54,6141.54 c 0,0 -99.56,20.86 -73.87,52.98 25.69,32.11 86.72,-32.09 73.87,-52.98" /><path
         id="path90"
         style="fill:#322f30;fill-opacity:1;fill-rule:nonzero;stroke:none"
         d="m 8761.28,6141.54 c 0,0 99.56,20.86 73.87,52.98 -25.7,32.11 -86.72,-32.09 -73.87,-52.98" /><path
         id="path92"
         style="fill:#ffffff;fill-opacity:1;fill-rule:nonzero;stroke:none"
         d="m 7931.43,6440.6 c -48.18,0 -346.87,48.17 -385.41,48.17 -38.54,0 -196.63,775.64 218.44,766 415.08,-9.63 166.97,-814.17 166.97,-814.17" /><path
         id="path94"
         style="fill:#322f30;fill-opacity:1;fill-rule:nonzero;stroke:none"
         d="m 7788.85,7253.1 c -79.2,-36.74 -200.24,-128.54 -206.7,-348.07 -6.02,-204.6 36.83,-349.06 69.84,-428.7 103.53,-14.27 247.28,-35.73 279.44,-35.73 0,0 238.03,772.05 -142.58,812.5" /><path
         id="path96"
         style="fill:#ffffff;fill-opacity:1;fill-rule:nonzero;stroke:none"
         d="m 7905,6987.71 c -26.8,-93.35 -98.55,-154.65 -160.27,-136.93 -61.71,17.72 -90.02,107.75 -63.22,201.1 26.8,93.34 98.56,154.65 160.28,136.93 61.71,-17.72 90.02,-107.76 63.21,-201.1" /><path
         id="path98"
         style="fill:#6b0a0d;fill-opacity:1;fill-rule:nonzero;stroke:none"
         d="m 7907.38,6442.19 c 33.47,79.51 64.58,279.19 61.79,307.08 -3.21,32.11 -32.12,-28.91 -157.38,-96.36 -125.26,-67.44 -183.07,38.54 -176.64,-41.75 4.02,-50.26 24.4,-104.43 39.08,-137.92 83.14,-11.61 183.65,-26.26 233.15,-31.05" /><path
         id="path100"
         style="fill:#393536;fill-opacity:1;fill-rule:nonzero;stroke:none"
         d="m 8051.34,7187.04 c -1.87,0 -3.65,1.09 -4.43,2.93 -32.83,76.69 -133.71,154.56 -134.72,155.35 -2.12,1.6 -2.52,4.63 -0.9,6.74 1.62,2.11 4.64,2.53 6.76,0.9 4.22,-3.23 103.89,-80.17 137.72,-159.21 1.05,-2.44 -0.09,-5.27 -2.53,-6.32 -0.62,-0.27 -1.26,-0.39 -1.9,-0.39" /><path
         id="path102"
         style="fill:#ffffff;fill-opacity:1;fill-rule:nonzero;stroke:none"
         d="m 9150.39,6440.6 c 48.18,0 346.87,48.17 385.41,48.17 38.54,0 196.63,775.64 -218.45,766 -415.07,-9.63 -166.96,-814.17 -166.96,-814.17" /><path
         id="path104"
         style="fill:#322f30;fill-opacity:1;fill-rule:nonzero;stroke:none"
         d="m 9292.96,7253.1 c 79.21,-36.74 200.25,-128.54 206.71,-348.07 6.01,-204.6 -36.83,-349.06 -69.84,-428.7 -103.53,-14.27 -247.28,-35.73 -279.44,-35.73 0,0 -238.03,772.05 142.57,812.5" /><path
         id="path106"
         style="fill:#ffffff;fill-opacity:1;fill-rule:nonzero;stroke:none"
         d="m 9176.81,6987.71 c 26.8,-93.35 98.56,-154.65 160.28,-136.93 61.71,17.72 90.02,107.75 63.22,201.1 -26.8,93.34 -98.56,154.65 -160.28,136.93 -61.71,-17.72 -90.02,-107.76 -63.22,-201.1" /><path
         id="path108"
         style="fill:#6b0a0d;fill-opacity:1;fill-rule:nonzero;stroke:none"
         d="m 9174.44,6442.19 c -33.47,79.51 -64.58,279.19 -61.79,307.08 3.21,32.11 32.12,-28.91 157.38,-96.36 125.26,-67.44 183.07,38.54 176.64,-41.75 -4.02,-50.26 -24.4,-104.43 -39.08,-137.92 -83.14,-11.61 -183.65,-26.26 -233.15,-31.05" /><path
         id="path110"
         style="fill:#393536;fill-opacity:1;fill-rule:nonzero;stroke:none"
         d="m 9030.48,7187.04 c 1.87,0 3.64,1.09 4.43,2.93 32.82,76.69 133.71,154.56 134.72,155.35 2.12,1.6 2.52,4.63 0.9,6.74 -1.62,2.11 -4.64,2.53 -6.76,0.9 -4.22,-3.23 -103.89,-80.17 -137.72,-159.21 -1.05,-2.44 0.09,-5.27 2.53,-6.32 0.62,-0.27 1.26,-0.39 1.9,-0.39" /><path
         id="path112"
         style="fill:#5ba386;fill-opacity:1;fill-rule:nonzero;stroke:none"
         d="m 12503.5,7723.32 h -1880 c -203.4,0 -370,-166.5 -370,-370 v -1880 c 0,-203.5 166.6,-370 370,-370 h 1880 c 203.6,0 370,166.5 370,370 v 1880 c 0,203.5 -166.4,370 -370,370" /><path
         id="path114"
         style="fill:#70cba5;fill-opacity:1;fill-rule:nonzero;stroke:none"
         d="m 12503.5,5273.32 h -1880 c -203.4,0 -370,166.5 -370,370 v 1880 c 0,203.5 166.6,370 370,370 h 1880 c 203.6,0 370,-166.5 370,-370 v -1880 c 0,-203.5 -166.4,-370 -370,-370" /><path
         id="path116"
         style="fill:#ffffff;fill-opacity:1;fill-rule:nonzero;stroke:none"
         d="m 10674.9,6957 c 0,0 481.6,-154.35 481.6,-747.05 0,0 -154.3,-30.87 -487.7,67.91 0,0 -160.5,216.09 6.1,679.14" /><path
         id="path118"
         style="fill:#bf1b2c;fill-opacity:1;fill-rule:nonzero;stroke:none"
         d="m 10807.5,6890.12 c -49.4,-111.43 -125.5,-351.62 -35.9,-640.12 262.3,-64.46 384.9,-40.05 384.9,-40.05 0,388.1 -206.5,588.24 -349,680.17" /><path
         id="path120"
         style="fill:#ffffff;fill-opacity:1;fill-rule:nonzero;stroke:none"
         d="m 10983.6,6487.78 c 0,-75.02 -23.6,-135.83 -52.8,-135.83 -29.2,0 -52.9,60.81 -52.9,135.83 0,75.01 23.7,135.82 52.9,135.82 29.2,0 52.8,-60.81 52.8,-135.82" /><path
         id="path122"
         style="fill:#393536;fill-opacity:1;fill-rule:nonzero;stroke:none"
         d="m 11116.4,6774.87 c -1.6,0 -2.9,1.18 -3.1,2.78 -12.1,120.8 -139.6,225.3 -140.9,226.34 -1.3,1.07 -1.5,3.02 -0.4,4.34 1.1,1.32 3,1.53 4.3,0.46 1.3,-1.06 130.8,-107.19 143.2,-230.53 0.1,-1.69 -1.1,-3.21 -2.8,-3.38 -0.1,-0.01 -0.2,-0.01 -0.3,-0.01" /><path
         id="path124"
         style="fill:#ffffff;fill-opacity:1;fill-rule:nonzero;stroke:none"
         d="m 12452.2,6957 c 0,0 -481.6,-154.35 -481.6,-747.05 0,0 154.3,-30.87 487.7,67.91 0,0 160.5,216.09 -6.1,679.14" /><path
         id="path126"
         style="fill:#bf1b2c;fill-opacity:1;fill-rule:nonzero;stroke:none"
         d="m 12319.6,6890.12 c 49.4,-111.43 125.5,-351.62 35.9,-640.12 -262.3,-64.46 -384.9,-40.05 -384.9,-40.05 0,388.1 206.5,588.24 349,680.17" /><path
         id="path128"
         style="fill:#ffffff;fill-opacity:1;fill-rule:nonzero;stroke:none"
         d="m 12143.5,6487.78 c 0,-75.02 23.6,-135.83 52.8,-135.83 29.2,0 52.9,60.81 52.9,135.83 0,75.01 -23.7,135.82 -52.9,135.82 -29.2,0 -52.8,-60.81 -52.8,-135.82" /><path
         id="path130"
         style="fill:#393536;fill-opacity:1;fill-rule:nonzero;stroke:none"
         d="m 12010.7,6774.87 c 1.6,0 2.9,1.18 3.1,2.78 12.1,120.8 139.6,225.3 140.9,226.34 1.3,1.07 1.5,3.02 0.4,4.34 -1.1,1.32 -3,1.53 -4.3,0.46 -1.3,-1.06 -130.8,-107.19 -143.2,-230.53 -0.1,-1.69 1.1,-3.21 2.8,-3.38 0.1,-0.01 0.2,-0.01 0.3,-0.01" /><path
         id="path132"
         style="fill:#393536;fill-opacity:1;fill-rule:nonzero;stroke:none"
         d="m 11563.5,5652.86 c -24.9,0 -61.2,26.37 -99.6,54.29 -35.4,25.75 -72,52.38 -93.7,52.38 h -696.7 c -2.7,0 -5,2.24 -5,5 0,2.76 2.3,5 5,5 h 696.7 c 25,0 61.2,-26.37 99.6,-54.29 35.4,-25.75 72,-52.38 93.7,-52.38 21.8,0 58.4,26.63 93.8,52.38 38.4,27.92 74.6,54.29 99.6,54.29 h 746.7 c 2.7,0 5,-2.24 5,-5 0,-2.76 -2.3,-5 -5,-5 h -746.7 c -21.7,0 -58.3,-26.63 -93.7,-52.37 -38.4,-27.92 -74.7,-54.3 -99.7,-54.3" /><path
         id="path134"
         style="fill:#393536;fill-opacity:1;fill-rule:nonzero;stroke:none"
         d="m 11443.7,5818.94 c 0,0 -81.1,18.02 -54.8,44.77 26.3,26.75 54.8,-44.77 54.8,-44.77" /><path
         id="path136"
         style="fill:#393536;fill-opacity:1;fill-rule:nonzero;stroke:none"
         d="m 11683.4,5818.94 c 0,0 81.1,18.02 54.8,44.77 -26.3,26.75 -54.8,-44.77 -54.8,-44.77" /><path
         id="path138"
         style="fill:#0bacae;fill-opacity:1;fill-rule:nonzero;stroke:none"
         d="m 11866.9,7674.53 c -47.5,25.14 -66.9,60 -123.4,0 -56.6,-60 -156.7,-153.33 -180,-193.33 -23.2,-40 176.8,-206.67 210.1,-220 33.3,-13.34 133.3,240 140,306.66 6.7,66.67 16.4,73.3 -46.7,106.67" /><path
         id="path140"
         style="fill:#0bacae;fill-opacity:1;fill-rule:nonzero;stroke:none"
         d="m 11383.6,7354.53 c -40.3,-27.2 -81.7,-67.68 -101.7,-93.84 -20,-26.16 63.4,-63.99 101.7,-92.57 38.3,-28.59 108.3,63.73 103.3,92.57 -5,28.84 -81.4,108.61 -103.3,93.84" /><path
         id="path142"
         style="fill:#0bacae;fill-opacity:1;fill-rule:nonzero;stroke:none"
         d="m 11683.4,7129.53 c -46.5,20 -91.5,-85 -61.5,-100 30,-15 88,12.52 91.5,51.26 3.5,38.74 -30,48.74 -30,48.74" /><path
         id="path144"
         style="fill:#8a77a4;fill-opacity:1;fill-rule:nonzero;stroke:none"
         d="m 3376.45,4526.69 h -1880 c -203.5,0 -370,-166.51 -370,-370 v -1880 c 0,-203.51 166.5,-370 370,-370 h 1880 c 203.5,0 370,166.49 370,370 v 1880 c 0,203.49 -166.5,370 -370,370" /><path
         id="path146"
         style="fill:#af99d3;fill-opacity:1;fill-rule:nonzero;stroke:none"
         d="m 3376.45,2079.68 h -1880 c -203.5,0 -370,166.5 -370,370 v 1880 c 0,203.5 166.5,370 370,370 h 1880 c 203.5,0 370,-166.5 370,-370 v -1880 c 0,-203.5 -166.5,-370 -370,-370" /><path
         id="path148"
         style="fill:#ed1294;fill-opacity:1;fill-rule:nonzero;stroke:none"
         d="m 2044.21,3408.6 c -98.18,-298.01 -337.79,-486.88 -535.2,-421.85 -197.4,65.03 -277.84,359.34 -179.66,657.35 98.18,298.01 337.79,486.88 535.19,421.85 197.41,-65.04 277.84,-359.34 179.67,-657.35" /><path
         id="path150"
         style="fill:#fac2e3;fill-opacity:1;fill-rule:nonzero;stroke:none"
         d="m 2084.64,3705.47 c -10.12,156.78 -73.87,285.79 -178.86,342.53 -0.22,0 -0.44,0.02 -0.67,0.02 -120.58,0 -218.33,-97.75 -218.33,-218.34 0,-120.58 97.75,-218.33 218.33,-218.33 74.43,0 140.11,37.26 179.53,94.12" /><path
         id="path152"
         style="fill:#ed1294;fill-opacity:1;fill-rule:nonzero;stroke:none"
         d="m 2789.35,3408.6 c 98.18,-298.01 337.79,-486.88 535.19,-421.85 197.41,65.03 277.84,359.34 179.67,657.35 -98.18,298.01 -337.79,486.88 -535.2,421.85 -197.4,-65.04 -277.84,-359.34 -179.66,-657.35" /><path
         id="path154"
         style="fill:#fac2e3;fill-opacity:1;fill-rule:nonzero;stroke:none"
         d="m 2748.92,3705.47 c 10.12,156.78 73.87,285.79 178.86,342.53 0.22,0 0.44,0.02 0.67,0.02 120.58,0 218.33,-97.75 218.33,-218.34 0,-120.58 -97.75,-218.33 -218.33,-218.33 -74.43,0 -140.11,37.26 -179.53,94.12" /><path
         id="path156"
         style="fill:#ffffff;fill-opacity:1;fill-rule:nonzero;stroke:none"
         d="m 2130.11,2758.02 c 0,0 26.67,-198.34 80,-198.34 53.34,0 76.67,198.34 76.67,198.34 h -156.67" /><path
         id="path158"
         style="fill:#ffffff;fill-opacity:1;fill-rule:nonzero;stroke:none"
         d="m 2548.45,2758.02 c 0,0 26.66,-198.34 80,-198.34 53.33,0 76.66,198.34 76.66,198.34 h -156.66" /><path
         id="path160"
         style="fill:#97d7da;fill-opacity:1;fill-rule:nonzero;stroke:none"
         d="m 2710.11,2781.35 c 0,-92.05 -131.33,-111.67 -293.33,-111.67 -162,0 -293.33,19.62 -293.33,111.67 0,92.05 131.33,221.67 293.33,221.67 162,0 293.33,-129.62 293.33,-221.67" /><path
         id="path162"
         style="fill:#4f4c4c;fill-opacity:1;fill-rule:nonzero;stroke:none"
         d="m 2125.79,4216.35 c 0,0 -104.63,366.67 -164.63,483.33 h 82.32 c 0,0 53.61,-230 82.31,-483.33" /><path
         id="path164"
         style="fill:#4f4c4c;fill-opacity:1;fill-rule:nonzero;stroke:none"
         d="m 2707.76,4216.35 c 0,0 104.63,366.67 164.63,483.33 h -82.31 c 0,0 -53.61,-230 -82.32,-483.33" /><path
         id="path166"
         style="fill:#d59ebe;fill-opacity:1;fill-rule:nonzero;stroke:none"
         d="m 6690.91,4424.28 c -40.73,38.79 -90.14,68.53 -145.02,85.7 -17.35,5.42 -35.24,9.6 -53.56,12.42 -18.32,2.82 -37.07,4.29 -56.15,4.29 v 0 h -18.3 -282.79 -1282.43 -278.18 -18.3 v 0 c -19.08,0 -37.83,-1.47 -56.15,-4.29 -18.32,-2.82 -36.21,-7 -53.56,-12.42 -150.37,-47.03 -260.29,-187.95 -260.29,-353.29 v -69.8 0 -1810.2 c 0,-203.51 166.5,-370 370,-370 h 1880 c 203.5,0 370,166.49 370,370 v 1880 c 0,98.64 -39.2,188.52 -102.7,255.03 -4.09,4.28 -8.28,8.47 -12.57,12.56" /><path
         id="path168"
         style="fill:#fabae0;fill-opacity:1;fill-rule:nonzero;stroke:none"
         d="m 6436.18,2079.68 h -1880 c -203.5,0 -370,166.5 -370,370 v 1880 c 0,203.5 166.5,370 370,370 h 1880 c 203.5,0 370,-166.5 370,-370 v -1880 c 0,-203.5 -166.5,-370 -370,-370" /><path
         id="path170"
         style="fill:#ffffff;fill-opacity:1;fill-rule:nonzero;stroke:none"
         d="m 5291.76,3426.75 c 0,-250.08 -202.74,-452.81 -452.82,-452.81 -250.08,0 -452.81,202.73 -452.81,452.81 0,250.08 202.73,452.81 452.81,452.81 250.08,0 452.82,-202.73 452.82,-452.81" /><path
         id="path172"
         style="fill:#36ab9c;fill-opacity:1;fill-rule:nonzero;stroke:none"
         d="m 5189.51,3426.75 c 0,-193.61 -156.95,-350.56 -350.57,-350.56 -193.61,0 -350.56,156.95 -350.56,350.56 0,193.61 156.95,350.56 350.56,350.56 193.62,0 350.57,-156.95 350.57,-350.56" /><path
         id="path174"
         style="fill:#ffffff;fill-opacity:1;fill-rule:nonzero;stroke:none"
         d="m 4932.06,3565.52 c 0,-87.72 -71.11,-158.83 -158.83,-158.83 -87.72,0 -158.83,71.11 -158.83,158.83 0,87.71 71.11,158.83 158.83,158.83 87.72,0 158.83,-71.12 158.83,-158.83" /><path
         id="path176"
         style="fill:#ffffff;fill-opacity:1;fill-rule:nonzero;stroke:none"
         d="m 6606.23,3426.75 c 0,-250.08 -202.73,-452.81 -452.81,-452.81 -250.08,0 -452.82,202.73 -452.82,452.81 0,250.08 202.74,452.81 452.82,452.81 250.08,0 452.81,-202.73 452.81,-452.81" /><path
         id="path178"
         style="fill:#36ab9c;fill-opacity:1;fill-rule:nonzero;stroke:none"
         d="m 6503.98,3426.75 c 0,-193.61 -156.95,-350.56 -350.56,-350.56 -193.61,0 -350.57,156.95 -350.57,350.56 0,193.61 156.96,350.56 350.57,350.56 193.61,0 350.56,-156.95 350.56,-350.56" /><path
         id="path180"
         style="fill:#ffffff;fill-opacity:1;fill-rule:nonzero;stroke:none"
         d="m 6246.54,3565.52 c 0,-87.72 -71.12,-158.83 -158.83,-158.83 -87.72,0 -158.83,71.11 -158.83,158.83 0,87.71 71.11,158.83 158.83,158.83 87.71,0 158.83,-71.12 158.83,-158.83" /><path
         id="path182"
         style="fill:#7e003f;fill-opacity:1;fill-rule:nonzero;stroke:none"
         d="m 5496.18,2923.16 c -100,0 -165.64,-44.62 -165.64,-44.62 24.36,-200.77 165.64,-174 165.64,-174 0,0 141.28,-26.77 165.64,174 0,0 -65.64,44.62 -165.64,44.62" /><path
         id="path184"
         style="fill:#f364b9;fill-opacity:1;fill-rule:nonzero;stroke:none"
         d="m 5648.79,2816.98 c -7.45,26.17 -18.75,57.1 -35.27,84.95 -28.75,10.78 -68.97,21.23 -117.34,21.23 -46.34,0 -85.15,-9.59 -113.62,-19.87 -17.4,-29.34 -29.35,-62.59 -37.38,-91.32 43.7,-127.71 151,-107.43 151,-107.43 0,0 110.03,-20.75 152.61,112.44" /><path
         id="path186"
         style="fill:#393536;fill-opacity:1;fill-rule:nonzero;stroke:none"
         d="m 4186.18,4329.68 v -69.79 c 38.03,-105.46 71.44,-181.13 71.44,-181.13 220,379.26 515.84,464.26 515.84,464.26 0,0 -87.26,75.39 -198.98,156.66 h -18.3 c -203.5,0 -370,-166.5 -370,-370" /><path
         id="path188"
         style="fill:#393536;fill-opacity:1;fill-rule:nonzero;stroke:none"
         d="m 6734.74,4078.76 c 0,0 33.41,75.67 71.44,181.13 v 69.79 c 0,203.5 -166.5,370 -370,370 h -18.3 c -111.71,-81.27 -198.98,-156.66 -198.98,-156.66 0,0 295.84,-85 515.84,-464.26" /><path
         id="path190"
         style="fill:#fddef0;fill-opacity:1;fill-rule:nonzero;stroke:none"
         d="m 4828.11,4182.67 c 104.62,-400.16 656.7,-576.21 937.05,-455.3 280.35,120.91 359.01,339.3 308.26,462.55 -47.38,115.06 -103.39,179.53 -180.33,187.59 63.16,-1.17 281.71,16.65 242,322.17 H 4852.66 c -51.61,-104.49 -88.78,-271.36 -24.55,-517.01" /><path
         id="path192"
         style="fill:#f89ed3;fill-opacity:1;fill-rule:nonzero;stroke:none"
         d="m 5893.09,4377.51 c 0,0 -18.17,2.83 -50.07,5.29 -31.85,2.46 -77.55,4.78 -131.69,1.16 -27.04,-1.91 -56.15,-5.54 -86.16,-11.93 -29.96,-6.51 -60.74,-16.43 -90.07,-30.93 -29.24,-14.7 -56.01,-35.48 -77.32,-61.3 -21.37,-25.83 -36.31,-57.35 -44.21,-91.01 l -5.09,-25.52 -0.31,-1.59 -0.16,-0.8 -0.08,-0.4 c 0.17,1.46 0.02,0.16 0.05,0.38 l -0.34,-3.42 -0.67,-6.82 -1.35,-13.62 c 0,-15.97 0.26,-32.92 4.53,-48.84 7.09,-32.03 24.87,-60.29 48.94,-80.71 11.85,-10.5 25.63,-18.22 39.25,-25.47 14.07,-6.43 28.38,-11.95 42.96,-15.25 29.02,-7.15 57.96,-7.86 83.89,-4.47 25.94,3.69 48.8,12.65 65.91,24.95 17.15,12.33 27.93,28.36 32.47,43.13 4.49,14.76 5.18,27.44 4.63,35.91 -0.72,8.55 -1.1,13.11 -1.1,13.11 0,0 0.99,-4.49 2.86,-12.92 1.6,-8.44 3.07,-21.44 -0.13,-37.8 -3.06,-16.29 -12.87,-35.72 -30.87,-51.14 -17.73,-15.53 -42.24,-27.76 -70.39,-33.67 -28.08,-5.87 -59.82,-7.36 -92.35,-0.92 -16.34,2.84 -32.67,8.09 -48.99,14.6 -16.03,7.21 -32,16.01 -46.42,27.77 -28.83,23.03 -52.72,56.89 -61.29,95.49 -5.17,19.01 -5.98,38.74 -5.83,59.17 l 1.2,13.65 0.6,6.82 0.3,3.42 0.14,1.23 0.08,0.44 0.16,0.89 0.33,1.77 c 1.79,9.46 3.34,18.97 5.4,28.39 9.2,37.55 26.69,73.82 51.65,103.33 24.74,29.76 56.58,51.72 89.03,67 32.66,15.23 66.26,23.73 98.06,28.98 31.86,5.33 62.24,6.83 90.09,6.73 55.77,-0.17 101.56,-7.32 133.16,-13.4 15.83,-2.98 28.11,-6.09 36.46,-8.21 8.31,-2.26 12.74,-3.47 12.74,-3.47" /><path
         id="path194"
         style="fill:#b27d46;fill-opacity:1;fill-rule:nonzero;stroke:none"
         d="m 9853.36,4217.91 c 0,0.01 0,0.02 0,0.03 -4.47,26.5 -11.78,52.05 -21.6,76.36 -0.09,0.21 -0.17,0.42 -0.25,0.63 -1.85,4.54 -3.79,9.03 -5.81,13.48 -0.23,0.51 -0.45,1.01 -0.69,1.52 -2,4.36 -4.08,8.68 -6.25,12.96 -0.22,0.44 -0.45,0.88 -0.68,1.32 -14.17,27.66 -31.69,53.33 -52.07,76.46 -0.08,0.09 -0.16,0.19 -0.24,0.28 -3.24,3.66 -6.55,7.25 -9.92,10.78 -0.34,0.35 -0.68,0.71 -1.02,1.07 -3.32,3.44 -6.7,6.83 -10.15,10.15 -0.34,0.32 -0.68,0.64 -1.02,0.97 -3.55,3.4 -7.17,6.73 -10.86,9.99 -0.03,0.03 -0.05,0.05 -0.08,0.07 -23.29,20.54 -49.14,38.19 -77.02,52.43 -0.2,0.1 -0.4,0.2 -0.6,0.31 -4.5,2.28 -9.04,4.47 -13.63,6.57 -0.23,0.11 -0.46,0.21 -0.69,0.31 -33.33,15.18 -69.25,25.53 -106.89,30.19 -0.09,0.01 -0.18,0.02 -0.27,0.03 -5.26,0.65 -10.55,1.18 -15.87,1.6 -0.25,0.02 -0.5,0.03 -0.75,0.05 -5.34,0.42 -10.7,0.72 -16.1,0.9 -0.01,0 -0.01,0 -0.01,0 v 0 c -4.11,0.14 -8.2,0.32 -12.33,0.32 h -1880 c -4.14,0 -8.23,-0.18 -12.33,-0.32 v 0 h -0.01 c -5.4,-0.18 -10.77,-0.48 -16.11,-0.9 -0.25,-0.02 -0.5,-0.03 -0.75,-0.05 -5.32,-0.42 -10.61,-0.95 -15.86,-1.6 -0.09,-0.01 -0.18,-0.02 -0.27,-0.03 -37.65,-4.66 -73.57,-15.01 -106.91,-30.19 -0.22,-0.1 -0.44,-0.2 -0.66,-0.3 -4.6,-2.11 -9.15,-4.3 -13.64,-6.59 -0.2,-0.1 -0.4,-0.2 -0.6,-0.3 -27.88,-14.24 -53.75,-31.89 -77.04,-52.44 -0.02,-0.02 -0.04,-0.03 -0.06,-0.05 -3.69,-3.26 -7.31,-6.61 -10.88,-10.01 -0.33,-0.32 -0.67,-0.64 -1,-0.96 -3.45,-3.32 -6.84,-6.71 -10.16,-10.16 -0.34,-0.35 -0.67,-0.7 -1,-1.05 -3.38,-3.54 -6.7,-7.13 -9.94,-10.8 -0.07,-0.08 -0.14,-0.16 -0.21,-0.24 -20.39,-23.14 -37.93,-48.82 -52.1,-76.5 -0.22,-0.44 -0.45,-0.87 -0.67,-1.3 -2.17,-4.28 -4.26,-8.61 -6.26,-12.98 -0.23,-0.5 -0.45,-1 -0.68,-1.49 -2.02,-4.46 -3.96,-8.95 -5.81,-13.49 -0.09,-0.22 -0.17,-0.44 -0.26,-0.65 -9.82,-24.3 -17.13,-49.85 -21.59,-76.34 0,-0.01 0,-0.03 -0.01,-0.04 v 0 c -3.35,-19.94 -5.19,-40.37 -5.19,-61.22 v -1880 c 0,-37.99 5.81,-74.68 16.57,-109.24 v 0 0 c 0.41,-1.32 0.88,-2.6 1.3,-3.91 1.29,-3.96 2.61,-7.91 4.02,-11.82 0.75,-2.07 1.56,-4.12 2.34,-6.17 1.2,-3.14 2.42,-6.26 3.71,-9.35 0.88,-2.14 1.78,-4.26 2.71,-6.38 1.33,-3.05 2.71,-6.07 4.12,-9.08 0.94,-2 1.86,-4.01 2.83,-5.99 1.75,-3.56 3.58,-7.08 5.44,-10.58 0.7,-1.32 1.36,-2.68 2.09,-3.99 2.53,-4.64 5.18,-9.2 7.9,-13.72 1.05,-1.73 2.15,-3.42 3.22,-5.14 1.84,-2.92 3.69,-5.84 5.6,-8.71 1.25,-1.87 2.53,-3.72 3.81,-5.58 1.87,-2.7 3.78,-5.38 5.73,-8.04 1.31,-1.79 2.61,-3.57 3.95,-5.34 2.19,-2.88 4.44,-5.71 6.71,-8.52 1.14,-1.42 2.26,-2.87 3.43,-4.27 3.37,-4.07 6.83,-8.06 10.37,-11.97 1.1,-1.22 2.25,-2.39 3.37,-3.59 2.59,-2.79 5.2,-5.56 7.88,-8.27 1.49,-1.5 3.01,-2.98 4.52,-4.46 2.43,-2.37 4.88,-4.72 7.37,-7.03 1.58,-1.46 3.17,-2.92 4.77,-4.36 2.65,-2.37 5.34,-4.68 8.06,-6.98 1.45,-1.23 2.89,-2.48 4.37,-3.69 4.13,-3.38 8.31,-6.7 12.59,-9.91 0.6,-0.45 1.22,-0.87 1.82,-1.31 3.79,-2.81 7.62,-5.54 11.51,-8.2 1.59,-1.09 3.21,-2.13 4.82,-3.19 2.99,-1.98 6,-3.93 9.05,-5.82 1.77,-1.1 3.55,-2.18 5.34,-3.25 3.07,-1.83 6.17,-3.61 9.29,-5.36 1.71,-0.95 3.41,-1.92 5.13,-2.85 3.85,-2.07 7.75,-4.06 11.68,-6 1,-0.49 1.97,-1.02 2.97,-1.5 4.92,-2.37 9.9,-4.62 14.93,-6.78 1.49,-0.64 3.01,-1.23 4.51,-1.85 3.63,-1.5 7.28,-2.96 10.97,-4.34 1.87,-0.7 3.76,-1.38 5.65,-2.05 3.46,-1.24 6.93,-2.42 10.44,-3.55 1.89,-0.61 3.77,-1.23 5.68,-1.81 3.89,-1.19 7.82,-2.3 11.77,-3.36 1.47,-0.4 2.93,-0.83 4.42,-1.21 5.41,-1.39 10.87,-2.67 16.38,-3.81 1.11,-0.23 2.25,-0.41 3.37,-0.63 4.42,-0.88 8.86,-1.69 13.34,-2.4 1.91,-0.31 3.84,-0.57 5.76,-0.84 3.8,-0.55 7.6,-1.04 11.43,-1.47 2.04,-0.22 4.08,-0.44 6.13,-0.63 3.96,-0.38 7.94,-0.67 11.94,-0.92 1.81,-0.11 3.62,-0.25 5.45,-0.34 5.78,-0.27 11.59,-0.44 17.44,-0.44 h 1293.38 0.48 586.14 c 5.93,0 11.82,0.17 17.69,0.45 1.9,0.09 3.77,0.25 5.66,0.37 3.97,0.25 7.93,0.53 11.87,0.91 2.2,0.21 4.39,0.46 6.58,0.71 3.62,0.41 7.23,0.87 10.82,1.39 2.24,0.32 4.47,0.66 6.7,1.02 3.59,0.58 7.15,1.24 10.7,1.92 2.12,0.41 4.25,0.81 6.36,1.25 3.91,0.83 7.79,1.76 11.67,2.71 1.66,0.42 3.34,0.78 5,1.21 5.42,1.42 10.8,2.95 16.13,4.61 1.41,0.44 2.8,0.95 4.21,1.4 3.93,1.28 7.85,2.59 11.73,3.99 2.11,0.77 4.2,1.6 6.29,2.4 3.14,1.2 6.27,2.42 9.37,3.71 2.24,0.93 4.47,1.9 6.7,2.87 2.9,1.27 5.77,2.58 8.63,3.92 2.27,1.07 4.53,2.14 6.77,3.24 2.79,1.38 5.54,2.82 8.3,4.27 2.2,1.16 4.41,2.29 6.58,3.49 2.89,1.6 5.72,3.27 8.56,4.94 2.47,1.45 4.93,2.89 7.36,4.39 3.91,2.42 7.78,4.89 11.59,7.45 2.29,1.54 4.52,3.16 6.78,4.74 2.21,1.56 4.43,3.11 6.61,4.71 2.37,1.75 4.7,3.56 7.03,5.36 1.97,1.53 3.94,3.06 5.88,4.63 2.38,1.91 4.72,3.86 7.05,5.84 1.79,1.51 3.56,3.05 5.31,4.6 2.38,2.09 4.75,4.2 7.07,6.35 1.55,1.43 3.06,2.91 4.58,4.37 2.45,2.35 4.91,4.69 7.29,7.1 0.71,0.72 1.38,1.46 2.08,2.18 5.89,6.06 11.58,12.31 17.05,18.76 0.5,0.59 1.02,1.16 1.52,1.75 2.44,2.91 4.79,5.89 7.14,8.87 0.99,1.26 2,2.52 2.98,3.79 2.24,2.93 4.42,5.9 6.58,8.89 0.97,1.36 1.95,2.72 2.91,4.09 2.14,3.06 4.24,6.14 6.29,9.26 0.83,1.27 1.64,2.55 2.46,3.82 2.12,3.32 4.21,6.65 6.23,10.03 0.46,0.77 0.89,1.55 1.34,2.33 7.16,12.22 13.65,24.88 19.4,37.94 0.15,0.33 0.3,0.66 0.45,0.99 1.7,3.89 3.29,7.83 4.86,11.78 0.44,1.12 0.9,2.24 1.33,3.37 1.46,3.78 2.84,7.6 4.17,11.45 0.45,1.27 0.88,2.55 1.31,3.83 1.29,3.88 2.54,7.77 3.71,11.7 0.33,1.12 0.64,2.25 0.96,3.37 1.21,4.19 2.38,8.39 3.43,12.63 0,0 0,0 0,0.01 v 0 c 7.1,28.49 10.93,58.23 10.93,88.84 v 1880 c 0,20.85 -1.84,41.28 -5.2,61.22 v 0" /><path
         id="path196"
         style="fill:#c1874c;fill-opacity:1;fill-rule:nonzero;stroke:none"
         d="m 9488.56,2079.68 h -1880 c -203.5,0 -370,166.5 -370,370 v 1880 c 0,203.5 166.5,370 370,370 h 1880 c 203.5,0 370,-166.5 370,-370 v -1880 c 0,-203.5 -166.5,-370 -370,-370" /><path
         id="path198"
         style="fill:#393536;fill-opacity:1;fill-rule:nonzero;stroke:none"
         d="m 8141,3464.35 c 0,-246.68 -108.9,-446.66 -243.24,-446.66 -134.34,0 -243.24,199.98 -243.24,446.66 0,246.69 108.9,446.67 243.24,446.67 134.34,0 243.24,-199.98 243.24,-446.67" /><path
         id="path200"
         style="fill:#6a4827;fill-opacity:1;fill-rule:nonzero;stroke:none"
         d="m 7897.76,3464.35 c -90.02,0 -168.56,-89.86 -210.62,-223.33 42.06,-133.47 120.6,-223.33 210.62,-223.33 90.02,0 168.56,89.86 210.62,223.33 -42.06,133.47 -120.6,223.33 -210.62,223.33" /><path
         id="path202"
         style="fill:#393536;fill-opacity:1;fill-rule:nonzero;stroke:none"
         d="m 7993.49,3464.35 c 0,-179.21 -42.86,-324.5 -95.73,-324.5 -52.87,0 -95.72,145.29 -95.72,324.5 0,179.22 42.85,324.51 95.72,324.51 52.87,0 95.73,-145.29 95.73,-324.51" /><path
         id="path204"
         style="fill:#ffffff;fill-opacity:1;fill-rule:nonzero;stroke:none"
         d="m 7970.96,3664.78 c 0,-68.52 -32.77,-124.07 -73.2,-124.07 -40.43,0 -73.2,55.55 -73.2,124.07 0,68.53 32.77,124.08 73.2,124.08 40.43,0 73.2,-55.55 73.2,-124.08" /><path
         id="path206"
         style="fill:#393536;fill-opacity:1;fill-rule:nonzero;stroke:none"
         d="m 8223.55,3789.2 c -19.19,-20.87 -101.14,132.09 -52.59,148.27 48.55,16.18 68.78,-130.67 52.59,-148.27" /><path
         id="path208"
         style="fill:#393536;fill-opacity:1;fill-rule:nonzero;stroke:none"
         d="m 8956.11,3464.35 c 0,-246.68 108.91,-446.66 243.24,-446.66 134.34,0 243.25,199.98 243.25,446.66 0,246.69 -108.91,446.67 -243.25,446.67 -134.33,0 -243.24,-199.98 -243.24,-446.67" /><path
         id="path210"
         style="fill:#6a4827;fill-opacity:1;fill-rule:nonzero;stroke:none"
         d="m 9199.35,3464.35 c 90.02,0 168.56,-89.86 210.62,-223.33 -42.06,-133.47 -120.6,-223.33 -210.62,-223.33 -90.01,0 -168.55,89.86 -210.62,223.33 42.07,133.47 120.61,223.33 210.62,223.33" /><path
         id="path212"
         style="fill:#393536;fill-opacity:1;fill-rule:nonzero;stroke:none"
         d="m 9103.63,3464.35 c 0,-179.21 42.86,-324.5 95.72,-324.5 52.87,0 95.73,145.29 95.73,324.5 0,179.22 -42.86,324.51 -95.73,324.51 -52.86,0 -95.72,-145.29 -95.72,-324.51" /><path
         id="path214"
         style="fill:#ffffff;fill-opacity:1;fill-rule:nonzero;stroke:none"
         d="m 9126.15,3664.78 c 0,-68.52 32.78,-124.07 73.2,-124.07 40.43,0 73.21,55.55 73.21,124.07 0,68.53 -32.78,124.08 -73.21,124.08 -40.42,0 -73.2,-55.55 -73.2,-124.08" /><path
         id="path216"
         style="fill:#393536;fill-opacity:1;fill-rule:nonzero;stroke:none"
         d="m 8873.56,3789.2 c 19.19,-20.87 101.14,132.09 52.59,148.27 -48.54,16.18 -68.77,-130.67 -52.59,-148.27" /><path
         id="path218"
         style="fill:#393536;fill-opacity:1;fill-rule:nonzero;stroke:none"
         d="m 8615.22,2937.69 c -26.66,0 -66.66,0 -66.66,0 0,0 -40,0 -66.67,0 -26.67,0 66.67,-66.67 66.67,-66.67 0,0 93.33,66.67 66.66,66.67" /><path
         id="path220"
         style="fill:#393536;fill-opacity:1;fill-rule:nonzero;stroke:none"
         d="m 8430.32,2738.34 c -78.1,0 -143.64,33.61 -147.76,35.76 -5.38,2.82 -7.16,8.95 -3.95,13.7 3.2,4.74 10.19,6.32 15.58,3.48 1.4,-0.73 141.33,-72.2 247.44,-0.65 l 6.92,4.66 6.92,-4.66 c 106.34,-71.7 246.05,-0.08 247.45,0.65 5.39,2.84 12.37,1.28 15.59,-3.47 3.2,-4.75 1.44,-10.89 -3.96,-13.71 -6.14,-3.21 -148.78,-76.32 -266,-3.81 -38.59,-23.87 -79.92,-31.94 -118.23,-31.95" /><path
         id="path222"
         style="fill:#6a4827;fill-opacity:1;fill-rule:nonzero;stroke:none"
         d="m 7596.23,4699.37 c -177.15,-5.89 -323.74,-137.79 -352.48,-308.46 53.44,-54.2 120.87,-103.06 203.35,-141.23 l -40,139.54 120,-69.77 -60,150.23 143.68,-65.46 -50,138.8 141.32,-85 c 0,0 -36.01,118.9 -105.87,241.35" /><path
         id="path224"
         style="fill:#6a4827;fill-opacity:1;fill-rule:nonzero;stroke:none"
         d="m 9853.36,4390.91 c -28.74,170.67 -175.33,302.57 -352.47,308.46 -69.86,-122.45 -105.88,-241.35 -105.88,-241.35 l 141.33,85 -50,-138.8 143.67,65.46 -60,-150.23 120,69.77 -40,-139.54 c 82.48,38.16 149.91,87.03 203.35,141.23" /><path
         id="path226"
         style="fill:#e5c075;fill-opacity:1;fill-rule:nonzero;stroke:none"
         d="m 7608.56,2079.68 h 1293.38 c -93.7,113.95 -217.54,183.34 -353.38,183.34 -111.23,0 -214.39,-46.58 -299.58,-125.98 -66.21,79.58 -151.28,134.39 -249.87,153.23 -103.58,19.8 -207.87,-2.97 -302.43,-58.19 -44.95,48.55 -99.19,85.98 -161.89,108.56 -90.13,32.45 -186.32,30.26 -279.66,-0.2 46.88,-150.61 187.91,-260.76 353.43,-260.76" /><path
         id="path228"
         style="fill:#e5c075;fill-opacity:1;fill-rule:nonzero;stroke:none"
         d="m 9847.63,2360.84 c -64.09,7.91 -128.19,1.87 -189.47,-20.2 -62.71,-22.58 -116.94,-60.01 -161.89,-108.56 -94.56,55.22 -198.85,77.99 -302.43,58.19 -120.73,-23.07 -221.06,-100.2 -291.42,-210.59 h 586.14 c 172.89,0 319.01,120.21 359.07,281.16" /><path
         id="path230"
         style="fill:#dacd99;fill-opacity:1;fill-rule:nonzero;stroke:none"
         d="m 12535.3,4526.69 h -1880 c -203.5,0 -370,-166.51 -370,-370 v -1880 c 0,-203.51 166.5,-370 370,-370 h 1880 c 203.5,0 370,166.49 370,370 v 1880 c 0,203.49 -166.5,370 -370,370" /><path
         id="path232"
         style="fill:#fdeeb2;fill-opacity:1;fill-rule:nonzero;stroke:none"
         d="m 12535.3,2079.68 h -1880 c -203.5,0 -370,166.5 -370,370 v 1880 c 0,203.5 166.5,370 370,370 h 1880 c 203.5,0 370,-166.5 370,-370 v -1880 c 0,-203.5 -166.5,-370 -370,-370" /><path
         id="path234"
         style="fill:#393536;fill-opacity:1;fill-rule:nonzero;stroke:none"
         d="m 10856.9,3256.31 c -163.7,0 -324.1,108.07 -476.7,321.23 l -5.1,7.07 2.5,8.63 c 1.3,4.7 33.9,116.47 109.5,229.9 101,151.6 230.9,231.73 375.6,231.73 2.2,0 4.3,-0.01 6.6,-0.04 267.8,-4.35 371.6,-263.48 421.5,-388.01 10.2,-25.65 21.8,-54.52 28,-61.86 h 25.2 l -15.4,-26.16 c -2,-3.29 -48.4,-81.55 -129.6,-160.88 -108.1,-105.73 -226.4,-161.61 -342.1,-161.61" /><path
         id="path236"
         style="fill:#ffffff;fill-opacity:1;fill-rule:nonzero;stroke:none"
         d="m 10391.9,3588.09 c 0,0 130.6,455.49 477.1,449.87 346.6,-5.63 406.8,-449.87 447,-449.87 0,0 -416.8,-708.55 -924.1,0" /><path
         id="path238"
         style="fill:#393536;fill-opacity:1;fill-rule:nonzero;stroke:none"
         d="m 11032.3,3655.59 c 0,-155.28 -22.5,-281.17 -50.2,-281.17 -27.7,0 -50.2,125.89 -50.2,281.17 0,155.29 22.5,281.17 50.2,281.17 27.7,0 50.2,-125.88 50.2,-281.17" /><path
         id="path240"
         style="fill:#242e78;fill-opacity:1;fill-rule:nonzero;stroke:none"
         d="m 11032.1,3683.1 c -10.4,32.23 -23,51.22 -36.6,51.22 -27.6,0 -51,-77.4 -59.9,-185.67 7.6,-102.23 25.5,-174.23 46.5,-174.23 27.7,0 50.2,125.89 50.2,281.17 0,9.28 -0.1,18.45 -0.2,27.51" /><path
         id="path242"
         style="fill:#e9e9e9;fill-opacity:1;fill-rule:nonzero;stroke:none"
         d="m 11015.8,3863.98 c -8.9,45.22 -20.7,72.78 -33.7,72.78 -13.4,0 -25.6,-29.56 -34.6,-77.61 8.2,-59.25 20.3,-96.71 33.8,-96.71 13.9,0 26.3,39.51 34.5,101.54" /><path
         id="path244"
         style="fill:#393536;fill-opacity:1;fill-rule:nonzero;stroke:none"
         d="m 12333.6,3256.31 c 163.8,0 324.2,108.07 476.8,321.23 l 5.1,7.07 -2.5,8.63 c -1.4,4.7 -33.9,116.47 -109.5,229.9 -101,151.6 -230.9,231.73 -375.6,231.73 -2.2,0 -4.4,-0.01 -6.6,-0.04 -267.9,-4.35 -371.6,-263.48 -421.5,-388.01 -10.3,-25.65 -21.8,-54.52 -28,-61.86 h -25.2 l 15.4,-26.16 c 1.9,-3.29 48.4,-81.55 129.5,-160.88 108.2,-105.73 226.5,-161.61 342.1,-161.61" /><path
         id="path246"
         style="fill:#ffffff;fill-opacity:1;fill-rule:nonzero;stroke:none"
         d="m 12798.6,3588.09 c 0,0 -130.5,455.49 -477.1,449.87 -346.5,-5.63 -406.8,-449.87 -446.9,-449.87 0,0 416.8,-708.55 924,0" /><path
         id="path248"
         style="fill:#393536;fill-opacity:1;fill-rule:nonzero;stroke:none"
         d="m 12158.3,3655.59 c 0,-155.28 22.4,-281.17 50.2,-281.17 27.7,0 50.2,125.89 50.2,281.17 0,155.29 -22.5,281.17 -50.2,281.17 -27.8,0 -50.2,-125.88 -50.2,-281.17" /><path
         id="path250"
         style="fill:#242e78;fill-opacity:1;fill-rule:nonzero;stroke:none"
         d="m 12158.5,3683.1 c 10.3,32.23 23,51.22 36.6,51.22 27.5,0 51,-77.4 59.8,-185.67 -7.5,-102.23 -25.5,-174.23 -46.4,-174.23 -27.8,0 -50.2,125.89 -50.2,281.17 0,9.28 0,18.45 0.2,27.51" /><path
         id="path252"
         style="fill:#e9e9e9;fill-opacity:1;fill-rule:nonzero;stroke:none"
         d="m 12174.8,3863.98 c 8.9,45.22 20.7,72.78 33.7,72.78 13.4,0 25.6,-29.56 34.6,-77.61 -8.2,-59.25 -20.3,-96.71 -33.8,-96.71 -13.9,0 -26.3,39.51 -34.5,101.54" /><path
         id="path254"
         style="fill:#393536;fill-opacity:1;fill-rule:nonzero;stroke:none"
         d="m 10724,2868.79 c -85.4,-0.01 -149.7,19.95 -162.1,80.16 -23.4,113.91 104.8,146.17 106.1,146.49 l 2.3,-9.73 c -4.9,-1.19 -120,-30.34 -98.5,-134.75 22.8,-111.13 266.6,-65.7 370.7,-46.32 18.5,3.45 39.2,7.5 61.8,11.94 143.4,28.12 360.1,70.62 591,70.62 230.9,0 447.6,-42.5 591,-70.62 22.6,-4.44 43.3,-8.49 61.8,-11.94 104.1,-19.38 347.9,-64.78 370.7,46.32 21.5,104.55 -93.6,133.57 -98.5,134.75 l 2.3,9.73 c 1.3,-0.32 129.4,-32.58 106,-146.49 -21.9,-106.38 -205.6,-87.07 -382.4,-54.13 -18.5,3.45 -39.2,7.51 -61.8,11.94 -143.1,28.05 -359.2,70.44 -589.1,70.44 -229.9,0 -446.1,-42.39 -589.1,-70.44 -22.6,-4.43 -43.3,-8.49 -61.8,-11.94 -76.8,-14.3 -154.8,-26.03 -220.4,-26.03" /><path
         id="path256"
         style="fill:#ad1143;fill-opacity:1;fill-rule:nonzero;stroke:none"
         d="m 10859.5,2885.42 c 0,0 237,-702.4 735.8,-702.4 498.7,0 704.4,707.37 704.4,707.37 0,0 -369.8,91.81 -704.4,91.81 -334.6,0 -735.8,-96.78 -735.8,-96.78" /><path
         id="path258"
         style="fill:#d25a66;fill-opacity:1;fill-rule:nonzero;stroke:none"
         d="m 12163.3,2583.67 c -146.7,130.95 -342,238.54 -587.7,238.54 -243,0 -430.8,-105.92 -569.6,-235.77 120.1,-191.16 315.1,-403.42 589.3,-403.42 271.5,0 456.1,209.62 568,400.65" /><path
         id="path260"
         style="fill:#f46878;fill-opacity:1;fill-rule:nonzero;stroke:none"
         d="m 11080.1,2479.94 c 120.6,-155.76 291.6,-296.92 515.2,-296.92 217.2,0 378.8,134.18 492,285.65 -136.8,103.1 -308.7,180.2 -516.8,180.2 -199.6,0 -361.8,-71.46 -490.4,-168.93" /><path
         id="path262"
         style="fill:#ffffff;fill-opacity:1;fill-rule:nonzero;stroke:none"
         d="m 10972.5,2909.84 c 32.2,-52.58 107.6,-114.55 107.6,-114.55 0,0 86.5,88.78 120.6,154.16 -88.7,-12.97 -168.3,-27.61 -228.2,-39.61" /><path
         id="path264"
         style="fill:#ffffff;fill-opacity:1;fill-rule:nonzero;stroke:none"
         d="m 12162.2,2919.99 c -64.7,12.58 -147.7,27.02 -239.1,38.83 33.7,-65.89 125.4,-163.53 125.4,-163.53 0,0 81.3,70.31 113.7,124.7" /><g
         id="g266"><g
           clip-path="url(#clipPath272)"
           id="g268"><path
             id="path274"
             style="fill:#cd700f;fill-opacity:1;fill-rule:nonzero;stroke:none"
             d="m 11579.6,4129.68 v 0 c -128.7,0 -234,105.32 -234,234.04 v 421.93 c 0,128.72 105.3,234.03 234,234.03 v 0 c 128.7,0 234,-105.31 234,-234.03 v -421.93 c 0,-128.72 -105.3,-234.04 -234,-234.04" /><path
             id="path276"
             style="fill:#f68712;fill-opacity:1;fill-rule:nonzero;stroke:none"
             d="m 11579.6,4189.68 v 0 c -128.7,0 -234,105.32 -234,234.04 v 421.93 c 0,128.72 105.3,234.03 234,234.03 v 0 c 128.7,0 234,-105.31 234,-234.03 v -421.93 c 0,-128.72 -105.3,-234.04 -234,-234.04" /><path
             id="path278"
             style="fill:#f9a72b;fill-opacity:1;fill-rule:nonzero;stroke:none"
             d="m 11813.6,4842.93 c -122,-98.58 -319.8,-260.46 -468,-381.95 v -37.26 c 0,-60.36 23.1,-115.57 61,-157.19 l 407,340.9 v 235.5" /><path
             id="path280"
             style="fill:#f9a72b;fill-opacity:1;fill-rule:nonzero;stroke:none"
             d="m 11523.5,4196.57 290.1,243.5 v 104.02 l -372.7,-308.51 c 24.4,-18.06 52.4,-31.49 82.6,-39.01" /><path
             id="path282"
             style="fill:#f9a72b;fill-opacity:1;fill-rule:nonzero;stroke:none"
             d="m 11345.6,4637.18 v -107.99 l 457.9,384.33 c -8,26.31 -20.6,50.7 -36.7,72.23 l -421.2,-348.57" /><path
             id="path284"
             style="fill:#cd700f;fill-opacity:1;fill-rule:nonzero;stroke:none"
             d="m 11357.8,4349.38 h 443.6 c 3.7,10.98 6.6,22.31 8.7,33.94 h -460.9 c 2,-11.63 4.9,-22.96 8.6,-33.94" /><path
             id="path286"
             style="fill:#cd700f;fill-opacity:1;fill-rule:nonzero;stroke:none"
             d="m 11345.6,4462.72 h 468 v 33.93 h -468 v -33.93" /><path
             id="path288"
             style="fill:#cd700f;fill-opacity:1;fill-rule:nonzero;stroke:none"
             d="m 11345.6,4576.05 h 468 v 33.93 h -468 v -33.93" /></g></g><path
         id="path290"
         style="fill:#393536;fill-opacity:1;fill-rule:nonzero;stroke:none"
         d="m 11874.6,4439.68 c 0,0 19.4,190 69.4,260 h 22.5 c 0,0 -60,-140 -67.5,-260 h -24.4" /><path
         id="path292"
         style="fill:#393536;fill-opacity:1;fill-rule:nonzero;stroke:none"
         d="m 11994.6,4439.68 c 0,0 14.9,200.39 29.5,260 h 22.5 c 0,0 -26,-100 -27.5,-260 h -24.5" /><path
         id="path294"
         style="fill:#393536;fill-opacity:1;fill-rule:nonzero;stroke:none"
         d="m 11286.3,4439.68 c 0,0 -19.5,190 -69.5,260 h -22.5 c 0,0 60,-140 67.5,-260 h 24.5" /><path
         id="path296"
         style="fill:#393536;fill-opacity:1;fill-rule:nonzero;stroke:none"
         d="m 11166.3,4439.68 c 0,0 -14.9,200.39 -29.5,260 h -22.5 c 0,0 26,-100 27.5,-260 h 24.5" /><path
         id="path298"
         style="fill:#393536;fill-opacity:1;fill-rule:nonzero;stroke:none"
         d="m 10285.3,3314.31 v -21.89 c 36.4,1.96 117.4,3.17 178.5,-19.11 l 10.4,22.17 c 0,0 -120,36.38 -188.9,18.83" /><path
         id="path300"
         style="fill:#393536;fill-opacity:1;fill-rule:nonzero;stroke:none"
         d="m 10285.3,3208.77 c 32,-7.68 76.4,-21.07 127.8,-44.23 l 10.4,22.18 c 0,0 -80.5,27.84 -138.2,43.01 v -20.96" /><path
         id="path302"
         style="fill:#393536;fill-opacity:1;fill-rule:nonzero;stroke:none"
         d="m 10285.3,2791.41 c 31.2,26.2 85.9,67.38 139.9,85.15 l -5.6,23.82 c 0,0 -82.3,-32.22 -134.3,-75.96 v -33.01" /><path
         id="path304"
         style="fill:#393536;fill-opacity:1;fill-rule:nonzero;stroke:none"
         d="m 10285.3,2695.01 c 20.2,11.71 78.7,42.6 167.4,64.73 l -5.6,23.81 c 0,0 -112.3,-38.98 -161.8,-64.15 v -24.39" /><path
         id="path306"
         style="fill:#393536;fill-opacity:1;fill-rule:nonzero;stroke:none"
         d="m 12899.9,3314.31 v -21.89 c -36.4,1.96 -117.4,3.17 -178.6,-19.11 l -10.3,22.17 c 0,0 120,36.38 188.9,18.83" /><path
         id="path308"
         style="fill:#393536;fill-opacity:1;fill-rule:nonzero;stroke:none"
         d="m 12899.9,3208.77 c -32,-7.68 -76.4,-21.07 -127.8,-44.23 l -10.4,22.18 c 0,0 80.4,27.84 138.2,43.01 v -20.96" /><path
         id="path310"
         style="fill:#393536;fill-opacity:1;fill-rule:nonzero;stroke:none"
         d="m 12899.9,2791.41 c -31.2,26.2 -85.9,67.38 -139.9,85.15 l 5.6,23.82 c 0,0 82.3,-32.22 134.3,-75.96 v -33.01" /><path
         id="path312"
         style="fill:#393536;fill-opacity:1;fill-rule:nonzero;stroke:none"
         d="m 12899.9,2695.01 c -20.2,11.71 -78.7,42.6 -167.4,64.73 l 5.6,23.81 c 0,0 112.3,-38.98 161.8,-64.15 v -24.39" /></g></g></svg>